<?xml version="1.0" standalone="no"?>
<!DOCTYPE svg PUBLIC "-//W3C//DTD SVG 20010904//EN"
 "http://www.w3.org/TR/2001/REC-SVG-20010904/DTD/svg10.dtd">
<svg version="1.0" xmlns="http://www.w3.org/2000/svg"
 width="500.000000pt" height="500.000000pt" viewBox="0 0 500.000000 500.000000"
 preserveAspectRatio="xMidYMid meet">
<metadata>
Created by potrace 1.11, written by Peter Selinger 2001-2013
</metadata>
<g transform="translate(0.000000,500.000000) scale(0.100000,-0.100000)"
fill="#000000" stroke="none">
<path d="M220 3954 c0 -4 25 -46 57 -93 31 -47 75 -115 98 -151 23 -36 67
-103 97 -150 79 -121 179 -276 218 -337 18 -29 34 -53 36 -53 2 0 40 53 293
413 63 89 147 208 188 265 40 57 73 105 73 108 0 2 -238 4 -530 4 -292 0 -530
-3 -530 -6z"/>
<path d="M1980 3810 c-58 -83 -145 -207 -195 -276 -49 -69 -97 -136 -105 -148
-8 -13 -67 -97 -130 -187 -172 -244 -184 -261 -307 -436 l-115 -163 114 -174
c62 -96 128 -199 146 -228 18 -29 191 -298 385 -598 l353 -545 1437 -3 1437
-2 0 310 0 310 -322 2 -323 3 0 1140 0 1140 -310 3 -310 2 0 -1142 -1 -1143
-565 -3 -565 -2 0 1142 0 1143 -260 3 -259 2 -105 -150z"/>
<path d="M609 1914 c-52 -74 -99 -141 -104 -147 -6 -7 -26 -34 -45 -62 -39
-57 -375 -535 -427 -607 l-35 -48 676 0 676 0 -53 81 c-28 44 -56 88 -62 97
-5 9 -31 48 -56 86 -25 39 -87 134 -136 211 -50 77 -129 201 -178 275 -48 74
-104 161 -124 192 l-37 58 -95 -136z"/>
</g>
</svg>
